<svg fill="#b0bbd4" id="Layer_1" enable-background="new 0 0 512 512" height="512" viewBox="0 0 512 512" width="512" xmlns="http://www.w3.org/2000/svg"><g><path fill="" d="m416.442 1.245-155.338 83.572c-2.966 1.596-6.535 1.599-9.504.008l-156.057-83.62c-6.692-3.586-14.791 1.262-14.791 8.855v73.683c0 3.703 2.037 7.106 5.301 8.855l165.547 88.705c2.969 1.591 6.538 1.588 9.504-.008l164.857-88.694c3.256-1.751 5.286-5.15 5.286-8.847v-73.662c0-7.6-8.112-12.448-14.805-8.847z"/><path d="m416.442 165.998-155.338 83.572c-2.966 1.596-6.535 1.599-9.504.008l-156.057-83.62c-6.692-3.586-14.791 1.262-14.791 8.855v73.683c0 3.703 2.037 7.106 5.301 8.855l165.547 88.705c2.969 1.591 6.538 1.588 9.504-.008l164.857-88.694c3.256-1.752 5.286-5.15 5.286-8.847v-73.663c0-7.599-8.112-12.447-14.805-8.846z"/><path d="m416.442 330.751-155.337 83.572c-2.966 1.596-6.535 1.599-9.504.008l-156.057-83.62c-6.692-3.586-14.791 1.262-14.791 8.855v73.683c0 3.703 2.037 7.106 5.301 8.855l165.546 88.705c2.969 1.591 6.538 1.588 9.504-.008l164.857-88.694c3.256-1.752 5.286-5.15 5.286-8.847v-73.663c0-7.6-8.112-12.447-14.805-8.846z"/></g></svg>
