<?xml version="1.0" encoding="UTF-8"?>
<svg width="12px" height="12px" viewBox="0 0 12 12" version="1.1" xmlns="http://www.w3.org/2000/svg" xmlns:xlink="http://www.w3.org/1999/xlink">
    <title>Group</title>
    <g id="Final-app" stroke="none" stroke-width="1" fill="none" fill-rule="evenodd">
        <g id="Cemetery-Expanded" transform="translate(-116, -154)">
            <g id="Group-6" transform="translate(104, 144)">
                <g id="Group" transform="translate(12, 10)">
                    <g id="mail-02" transform="translate(0, 1)" stroke="#000000" stroke-linecap="round" stroke-linejoin="round" stroke-width="1.2">
                        <path d="M11.7,8.75 L7.71426,5 M4.285716,5 L0.300018,8.75 M0,1.875 L4.89894,5.447125 C5.29566,5.7364375 5.49402,5.8810625 5.70978,5.9370625 C5.90034,5.9865625 6.09966,5.9865625 6.29022,5.9370625 C6.50598,5.8810625 6.70434,5.7364375 7.10106,5.447125 L12,1.875 M2.88,10 L9.12,10 C10.12812,10 10.63212,10 11.0172,9.795625 C11.3559,9.615875 11.63124,9.3290625 11.8038,8.97625 C12,8.575125 12,8.050125 12,7 L12,3 C12,1.9499 12,1.42485 11.8038,1.02376875 C11.63124,0.6709625 11.3559,0.384125 11.0172,0.2043625 C10.63212,0 10.12812,0 9.12,0 L2.88,0 C1.871904,0 1.367856,0 0.982818,0.2043625 C0.644124,0.384125 0.36876,0.6709625 0.196188,1.02376875 C0,1.42485 0,1.9499 0,3 L0,7 C0,8.050125 0,8.575125 0.196188,8.97625 C0.36876,9.3290625 0.644124,9.615875 0.982818,9.795625 C1.367856,10 1.871904,10 2.88,10 Z" id="Shape"></path>
                    </g>
                    <rect id="Rectangle" x="0" y="0" width="12" height="12"></rect>
                </g>
            </g>
        </g>
    </g>
</svg>