<svg xmlns="http://www.w3.org/2000/svg" xmlns:xlink="http://www.w3.org/1999/xlink" version="1.1" x="0px" y="0px" viewBox="0 0 25 31.25" enable-background="new 0 0 25 25" xml:space="preserve"><g><g><path d="M19.191,5.538C19.13,5.514,19.065,5.5,19,5.5h-4c-0.276,0-0.5,0.224-0.5,0.5s0.224,0.5,0.5,0.5h2.793l-3.146,3.146    c-0.195,0.195-0.195,0.512,0,0.707C14.744,10.451,14.872,10.5,15,10.5s0.256-0.049,0.354-0.146L18.5,7.207V10    c0,0.276,0.224,0.5,0.5,0.5s0.5-0.224,0.5-0.5V6c0-0.065-0.013-0.13-0.039-0.191C19.411,5.687,19.313,5.589,19.191,5.538z"/><path d="M19,14.5c-0.276,0-0.5,0.224-0.5,0.5v2.793l-3.146-3.146c-0.195-0.195-0.512-0.195-0.707,0s-0.195,0.512,0,0.707    l3.146,3.146H15c-0.276,0-0.5,0.224-0.5,0.5s0.224,0.5,0.5,0.5h4c0.065,0,0.13-0.014,0.191-0.038    c0.123-0.051,0.22-0.148,0.271-0.271C19.487,19.13,19.5,19.065,19.5,19v-4C19.5,14.724,19.276,14.5,19,14.5z"/><path d="M10.354,14.646c-0.195-0.195-0.512-0.195-0.707,0L6.5,17.793V15c0-0.276-0.224-0.5-0.5-0.5S5.5,14.724,5.5,15v4    c0,0.065,0.013,0.13,0.039,0.191c0.05,0.122,0.148,0.22,0.271,0.271C5.87,19.486,5.935,19.5,6,19.5h4c0.276,0,0.5-0.224,0.5-0.5    s-0.224-0.5-0.5-0.5H7.207l3.146-3.146C10.549,15.158,10.549,14.842,10.354,14.646z"/><path d="M10.5,6c0-0.276-0.224-0.5-0.5-0.5H6c-0.065,0-0.13,0.014-0.191,0.038c-0.123,0.051-0.22,0.148-0.271,0.271    C5.513,5.87,5.5,5.935,5.5,6v4c0,0.276,0.224,0.5,0.5,0.5s0.5-0.224,0.5-0.5V7.207l3.146,3.146C9.744,10.451,9.872,10.5,10,10.5    s0.256-0.049,0.354-0.146c0.195-0.195,0.195-0.512,0-0.707L7.207,6.5H10C10.276,6.5,10.5,6.276,10.5,6z"/><path d="M20,2.5H5C3.622,2.5,2.5,3.621,2.5,5v15c0,1.379,1.122,2.5,2.5,2.5h15c1.378,0,2.5-1.121,2.5-2.5V5    C22.5,3.621,21.378,2.5,20,2.5z M21.5,20c0,0.827-0.673,1.5-1.5,1.5H5c-0.827,0-1.5-0.673-1.5-1.5V5c0-0.827,0.673-1.5,1.5-1.5h15    c0.827,0,1.5,0.673,1.5,1.5V20z"/></g></g><text x="0" y="40" fill="#000000" font-size="5px" font-weight="bold" font-family="'Helvetica Neue', Helvetica, Arial-Unicode, Arial, Sans-serif">Created by Ralf Schmitzer</text><text x="0" y="45" fill="#000000" font-size="5px" font-weight="bold" font-family="'Helvetica Neue', Helvetica, Arial-Unicode, Arial, Sans-serif">from the Noun Project</text></svg>