<svg xmlns="http://www.w3.org/2000/svg" xmlns:xlink="http://www.w3.org/1999/xlink" width="22px" height="22px" viewBox="0 0 22 22" version="1.1">
    <title>globe-04</title>
    <g id="Final-app" stroke="none" stroke-width="1" fill="none" fill-rule="evenodd" stroke-linecap="round" stroke-linejoin="round">
        <g id="Landing---map-change" transform="translate(-374, -645)" stroke="#000000" stroke-width="2">
            <g id="globe-04" transform="translate(375, 646)">
                <path d="M1.07598,5.48282 L5.36402,8.5457 C5.58715,8.705 5.69872,8.7847 5.81548,8.8031 C5.91821,8.8192 6.02343,8.8029 6.11648,8.7565 C6.22223,8.7037 6.30449,8.594 6.46901,8.3747 L7.37511,7.16652 C7.42164,7.10448 7.4449,7.07347 7.47224,7.04671 C7.49652,7.02295 7.52315,7.00173 7.55173,6.98338 C7.58392,6.9627 7.61935,6.94696 7.6902,6.91546 L11.5588,5.19609 C11.7192,5.12482 11.7993,5.08918 11.8598,5.03352 C11.9133,4.9843 11.9554,4.924 11.9832,4.85684 C12.0146,4.78091 12.0204,4.69336 12.0321,4.51826 L12.3154,0.2694 M11.5,11.5 L14.116,12.6211 C14.4195,12.7512 14.5713,12.8163 14.6517,12.9243 C14.7222,13.0191 14.7569,13.1358 14.7496,13.2537 C14.7413,13.3881 14.6497,13.5255 14.4665,13.8002 L13.2375,15.6438 C13.1507,15.774 13.1072,15.8391 13.0499,15.8863 C12.9991,15.928 12.9406,15.9593 12.8777,15.9784 C12.8067,16 12.7284,16 12.5719,16 L10.5766,16 C10.3693,16 10.2656,16 10.1774,15.9653 C10.0995,15.9347 10.0305,15.885 9.9768,15.8208 C9.916,15.7481 9.8832,15.6497 9.8177,15.453 L9.1048,13.3144 C9.0661,13.1983 9.0468,13.1403 9.0417,13.0814 C9.0372,13.0291 9.0409,12.9764 9.0528,12.9253 C9.0662,12.8677 9.0935,12.813 9.1482,12.7036 L9.6897,11.6206 C9.7997,11.4005 9.8547,11.2905 9.9395,11.2222 C10.0141,11.162 10.1046,11.1246 10.1999,11.1143 C10.3081,11.1027 10.4248,11.1416 10.6582,11.2194 L11.5,11.5 Z M20,10 C20,15.5228 15.5228,20 10,20 C4.47715,20 0,15.5228 0,10 C0,4.47715 4.47715,0 10,0 C15.5228,0 20,4.47715 20,10 Z" id="Shape"/>
            </g>
        </g>
    </g>
</svg>