<svg xmlns="http://www.w3.org/2000/svg" xmlns:xlink="http://www.w3.org/1999/xlink" width="24px" height="24px" viewBox="0 0 24 24" version="1.1">
    <title>Group 9</title>
    <g id="Final-app" stroke="none" stroke-width="1" fill="none" fill-rule="evenodd">
        <g id="Settings" transform="translate(-46, -278)">
            <g id="Group-2" transform="translate(32, 264)">
                <g id="Group-9" transform="translate(14, 14)">
                    <g id="file-shield-02" transform="translate(4, 2)" stroke="#000000" stroke-linecap="round" stroke-linejoin="round" stroke-width="2">
                        <path d="M10,9 L4,9 M6,13 L4,13 M12,5 L4,5 M16,8 L16,4.8 C16,3.11984 16,2.27976 15.673,1.63803 C15.3854,1.07354 14.9265,0.6146 14.362,0.32698 C13.7202,0 12.8802,0 11.2,0 L4.8,0 C3.11984,0 2.27976,0 1.63803,0.32698 C1.07354,0.6146 0.6146,1.07354 0.32698,1.63803 C0,2.27976 0,3.11984 0,4.8 L0,15.2 C0,16.8802 0,17.7202 0.32698,18.362 C0.6146,18.9265 1.07354,19.3854 1.63803,19.673 C2.27976,20 3.11984,20 4.8,20 L8.5,20 M14,19 C14,19 17,17.5701 17,15.4252 L17,12.9229 L14.8124,12.1412 C14.2868,11.9529 13.712,11.9529 13.1864,12.1412 L11,12.9229 L11,15.4252 C11,17.5701 14,19 14,19 Z" id="Shape"/>
                    </g>
                    <rect id="Rectangle" x="0" y="0" width="24" height="24"/>
                </g>
            </g>
        </g>
    </g>
</svg>