<svg fill="#808EAB" height="512" viewBox="0 0 24 24" width="512" xmlns="http://www.w3.org/2000/svg"><g id="Layer_2" data-name="Layer 2"><path d="m16 22.75a.656.656 0 0 1 -.076 0 .749.749 0 0 1 -.671-.821l2-20a.736.736 0 0 1 .821-.671.749.749 0 0 1 .671.821l-2 20a.75.75 0 0 1 -.745.671z"/><path d="m6 22.75a.656.656 0 0 1 -.076 0 .749.749 0 0 1 -.671-.821l2-20a.738.738 0 0 1 .821-.671.749.749 0 0 1 .671.821l-2 20a.75.75 0 0 1 -.745.671z"/><path d="m22 17.25h-20a.75.75 0 0 1 0-1.5h20a.75.75 0 0 1 0 1.5z"/><path d="m22 8.25h-20a.75.75 0 0 1 0-1.5h20a.75.75 0 0 1 0 1.5z"/></g></svg>