<svg fill="#808EAB" id="badge" height="512" viewBox="0 0 98 98" width="512" xmlns="http://www.w3.org/2000/svg"><path d="m52.281 50.277c1.272-1.685.76-4.41-.979-5.538l12.347-7.717c1.472-.919 2.35-2.504 2.35-4.239v-18.783c2.644.228 5.016-1.81 5-4.5 0-2.481-2.019-4.5-4.5-4.5h-34.999c-6.265.294-5.794 9.324.5 9v18.783c0 1.735.878 3.32 2.35 4.239l12.347 7.717c-1.738 1.128-2.25 3.853-.979 5.538-10.299 1.588-18.219 10.485-18.219 21.223 1.181 28.523 41.824 28.514 43 0 0-10.737-7.92-19.634-18.219-21.222zm2.719-36.277v26.071l-6 3.75-6-3.75v-26.071zm9 18.783c0 1.041-.527 1.992-1.41 2.544l-5.59 3.494v-24.821h7zm-35-23.283c0-1.379 1.122-2.5 2.5-2.5h35c3.286.082 3.305 4.912 0 5h-1.5-33.5c-1.378 0-2.5-1.121-2.5-2.5zm5 23.283v-18.783h7v24.821l-5.59-3.494c-.883-.552-1.41-1.503-1.41-2.544zm13 15.217c.069-2.637 3.931-2.637 4 0-.069 2.637-3.931 2.637-4 0zm2 43c-10.752 0-19.5-8.748-19.5-19.5 1.071-25.869 37.933-25.862 39 0 0 10.752-8.748 19.5-19.5 19.5z"/><path d="m49 54.5c-9.374 0-17 7.626-17 17 .934 22.553 33.07 22.546 34 0 0-9.374-7.626-17-17-17zm0 32c-8.271 0-15-6.729-15-15 .824-19.9 29.179-19.894 30 0 0 8.271-6.729 15-15 15z"/><path d="m52.84 66.292-2.953-5.69c-.344-.662-1.432-.662-1.775 0l-2.953 5.69-6.323 1.05c-.369.061-.672.322-.788.678-.115.354-.023.744.239 1.011l4.499 4.565-.955 6.339c-.056.369.099.739.401.958.303.22.703.252 1.035.086l5.733-2.868 5.733 2.868c.333.166.732.135 1.035-.086.302-.219.457-.589.401-.958l-.955-6.339 4.499-4.565c.262-.267.354-.656.239-1.011s-.419-.617-.788-.678l-6.323-1.05zm.598 6.256c-.221.225-.323.54-.276.852l.743 4.928c-.214-.06-4.78-2.513-4.904-2.335-.114-.183-4.702 2.281-4.904 2.335l.743-4.928c.047-.312-.056-.627-.276-.852l-3.497-3.549 4.916-.816c.311-.052.579-.246.724-.525l2.295-4.424 2.295 4.424c.145.279.413.474.724.525l4.916.816-3.497 3.549z"/></svg>