<svg xmlns="http://www.w3.org/2000/svg" xmlns:xlink="http://www.w3.org/1999/xlink" width="40px" height="40px" viewBox="0 0 40 40" version="1.1">
    <title>Group 10</title>
    <g id="Final-app" stroke="none" stroke-width="1" fill="none" fill-rule="evenodd">
        <g id="Soldier-profile--fixed-menu" transform="translate(-308, -1172)">
            <g id="Group-17" transform="translate(0, 1119)">
                <g id="Group-11" transform="translate(281, 53)">
                    <g id="Group-10" transform="translate(27, 0)">
                        <g id="message-heart-square" transform="translate(4, 3.5)" stroke="#FFFFFF" stroke-linecap="round" stroke-linejoin="round" stroke-width="2">
                            <path d="M0,8.58085431 C0,5.57726927 0,4.07547675 0.581297778,2.92827016 C1.09262222,1.91914382 1.90851556,1.09870689 2.91205333,0.584534946 C4.05290667,0 5.54638222,0 8.53333333,0 L23.4666667,0 C26.4536889,0 27.9470222,0 29.088,0.584534946 C30.0915556,1.09870689 30.9073778,1.91914382 31.4186667,2.92827016 C32,4.07547675 32,5.57726927 32,8.58085431 L32,18.2343154 C32,21.237972 32,22.7396215 31.4186667,23.8869532 C30.9073778,24.8960974 30.0915556,25.7164628 29.088,26.230599 C27.9470222,26.8151697 26.4536889,26.8151697 23.4666667,26.8151697 L18.9932444,26.8151697 C17.8839111,26.8151697 17.3292444,26.8151697 16.7985778,26.9247544 C16.3278222,27.0218253 15.8723556,27.1825375 15.4444444,27.4024219 C14.9621333,27.6501941 14.5288889,27.9986125 13.6625778,28.6954494 L9.42179556,32.1070541 C8.68208,32.7021721 8.31223111,32.9996417 8.00096,33 C7.73025778,33.0003568 7.47416889,32.8764707 7.30529778,32.663737 C7.11111111,32.4191827 7.11111111,31.9429452 7.11111111,30.9902916 L7.11111111,26.8151697 C5.45783111,26.8151697 4.63118222,26.8151697 3.95296,26.632469 C2.11248,26.1365672 0.67488,24.690872 0.181724444,22.8402677 C0,22.1582686 0,21.3269983 0,19.6644578 L0,8.58085431 Z" id="Path"/>
                            <path d="M15.9944889,8.40074575 C14.3950222,6.54361648 11.7278044,6.04404987 9.72375111,7.74463218 C7.71971556,9.44519661 7.43758222,12.2884806 9.01136,14.2998149 C9.98636444,15.5458265 12.4335822,17.8215406 14.1546667,19.3730663 C14.7868444,19.9427993 15.1027556,20.2277551 15.4821333,20.3425241 C15.8076444,20.4410251 16.1815111,20.4410251 16.5068444,20.3425241 C16.8862222,20.2277551 17.2023111,19.9427993 17.8344889,19.3730663 C19.5553778,17.8215406 22.0026667,15.5458265 22.9776,14.2998149 C24.5514667,12.2884806 24.3038222,9.42731983 22.2652444,7.74463218 C20.2268444,6.06194453 17.5939556,6.54361648 15.9944889,8.40074575 Z" id="Path"/>
                        </g>
                        <rect id="Rectangle" x="0" y="0" width="40" height="40"/>
                    </g>
                </g>
            </g>
        </g>
    </g>
</svg>