<svg xmlns="http://www.w3.org/2000/svg" xmlns:xlink="http://www.w3.org/1999/xlink" width="29.1681547px" height="29.1681547px" viewBox="0 0 29.1681547 29.1681547" version="1.1">
    <title>icon/32/full/arrow</title>
    <g id="Final-app" stroke="none" stroke-width="1" fill="none" fill-rule="evenodd">
        <g id="Soldier-profile---completely-scrolled" transform="translate(-327.6811, -447.6811)" fill="#FFFFFF">
            <g id="Group-6" transform="translate(32, 421)">
                <g id="icon/32/full/arrow" transform="translate(310.2652, 41.2652) rotate(45) translate(-310.2652, -41.2652)translate(300.8902, 30.0152)">
                    <path d="M9.89947552,1.25874126 L18.0684115,20.8641877 C18.1891031,21.1538475 18.0521273,21.4865031 17.7624675,21.6071947 C17.5931398,21.6777479 17.4001665,21.6622108 17.244308,21.5654754 L9.35304343,16.667674 C9.1638988,16.5502793 8.92362108,16.5541575 8.7383636,16.6775953 L1.56096089,21.4599258 C1.29982132,21.6339241 0.947072387,21.5632822 0.7730741,21.3021426 C0.667763584,21.1440908 0.648386363,20.9438727 0.721433602,20.7685594 L8.85052448,1.25874126 C8.97121607,0.969081425 9.30387163,0.832105605 9.59353147,0.952797203 C9.73187076,1.01043857 9.84183415,1.12040197 9.89947552,1.25874126 Z" id="Triangle"/>
                </g>
            </g>
        </g>
    </g>
</svg>