<svg xmlns="http://www.w3.org/2000/svg" xmlns:xlink="http://www.w3.org/1999/xlink" width="22px" height="23px" viewBox="0 0 22 23" version="1.1">
    <title>navigation-pointer-01</title>
    <g id="Final-app" stroke="none" stroke-width="1" fill="none" fill-rule="evenodd" stroke-linecap="round" stroke-linejoin="round">
        <g id="Landing" transform="translate(-373, -593)" stroke="#000000" stroke-width="2">
            <g id="Group-3" transform="translate(365, 584)">
                <g id="navigation-pointer-01" transform="translate(9, 11)">
                    <path d="M1.03649634,8.35387578 C0.441156335,8.12237578 0.143476335,8.00657578 0.0565763353,7.83977578 C-0.0187636647,7.69517578 -0.0188636647,7.52291578 0.0563063353,7.37823578 C0.143016335,7.21132578 0.440546335,7.09521578 1.03562634,6.86298578 L17.9233463,0.272645779 C18.4605463,0.0630157789 18.7291463,-0.0417942211 18.9007463,0.0155357789 C19.0498463,0.0653357789 19.1667463,0.182295779 19.2165463,0.331345779 C19.2739463,0.502975779 19.1691463,0.771565779 18.9594463,1.30874578 L12.3691463,18.1964758 C12.1369463,18.7915758 12.0207463,19.0890758 11.8538463,19.1757758 C11.7092463,19.2509758 11.5369463,19.2508758 11.3923463,19.1755758 C11.2255463,19.0886758 11.1097463,18.7909758 10.8782463,18.1955758 L8.25014634,11.4375758 C8.20314634,11.3167758 8.17964634,11.2563758 8.14334634,11.2054758 C8.11114634,11.1603758 8.07174634,11.1208758 8.02664634,11.0887758 C7.97574634,11.0524758 7.91534634,11.0289758 7.79454634,10.9819758 L1.03649634,8.35387578 Z" id="Path"/>
                </g>
            </g>
        </g>
    </g>
</svg>