<svg xmlns="http://www.w3.org/2000/svg" xmlns:xlink="http://www.w3.org/1999/xlink" width="16px" height="16px" viewBox="0 0 16 16" version="1.1">
    <title>icon/16/basic/+</title>
    <g id="Final-app" stroke="none" stroke-width="1" fill="none" fill-rule="evenodd">
        <g id="Soldier-profile--fixed-menu" transform="translate(-350, -531)" fill="#0C1831">
            <g id="Group-12" transform="translate(32, 515)">
                <g id="icon/16/basic/+" transform="translate(318.1005, 16.1005)">
                    <path d="M2.60660172,2.60660172 C2.99712601,2.21607743 3.63029099,2.21607743 4.02081528,2.60660172 L7.8987085,6.4847085 L11.7781746,2.60660172 C12.1386586,2.24611776 12.7058896,2.21838822 13.0981808,2.52341311 L13.1923882,2.60660172 C13.5829124,2.99712601 13.5829124,3.63029099 13.1923882,4.02081528 L9.3137085,7.8987085 L13.1923882,11.7781746 C13.5528721,12.1386586 13.5806017,12.7058896 13.2755768,13.0981808 L13.1923882,13.1923882 C12.8018639,13.5829124 12.1686989,13.5829124 11.7781746,13.1923882 L7.8987085,9.3137085 L4.02081528,13.1923882 C3.66033132,13.5528721 3.09310026,13.5806017 2.70080906,13.2755768 L2.60660172,13.1923882 C2.21607743,12.8018639 2.21607743,12.1686989 2.60660172,11.7781746 L6.4847085,7.8987085 L2.60660172,4.02081528 C2.24611776,3.66033132 2.21838822,3.09310026 2.52341311,2.70080906 Z" id="Combined-Shape" transform="translate(7.8995, 7.8995) rotate(-45) translate(-7.8995, -7.8995)"/>
                </g>
            </g>
        </g>
    </g>
</svg>