<svg xmlns="http://www.w3.org/2000/svg" xmlns:xlink="http://www.w3.org/1999/xlink" width="40px" height="40px" viewBox="0 0 40 40" version="1.1">
    <title>Group 7</title>
    <g id="Final-app" stroke="none" stroke-width="1" fill="none" fill-rule="evenodd">
        <g id="Soldier-profile--fixed-menu" transform="translate(-63, -1172)">
            <g id="Group-17" transform="translate(0, 1119)">
                <g id="Group-16" transform="translate(40, 53)">
                    <g id="Group-7" transform="translate(23, 0)">
                        <g id="book-open-02" transform="translate(2.5, 4)" stroke="#FFFFFF" stroke-linecap="round" stroke-linejoin="round" stroke-width="2">
                            <g id="book-open-01">
                                <path d="M17.5,32 L17.324825,31.7331556 C16.109275,29.8808889 15.5015,28.9546667 14.698425,28.2840889 C13.987505,27.6904889 13.16833,27.2451556 12.2878175,26.9735111 C11.2931875,26.6666667 10.1974425,26.6666667 8.005935,26.6666667 L5.6,26.6666667 C3.6398075,26.6666667 2.65972,26.6666667 1.911035,26.2791111 C1.2524575,25.9383111 0.7170275,25.3943111 0.3814825,24.7253333 C0,23.9648 0,22.9690667 0,20.9777778 L0,5.68888889 C0,3.69758222 0,2.70193778 0.3814825,1.94136889 C0.7170275,1.27233778 1.2524575,0.728408889 1.911035,0.387537778 C2.65972,0 3.6398075,0 5.6,0 L6.3,0 C10.2203675,0 12.1805425,0 13.67793,0.775057778 C14.99505,1.45683556 16.065875,2.54469333 16.737,3.88273778 C17.5,5.40387556 17.5,7.39518222 17.5,11.3777778 M17.5,32 L17.5,11.3777778 M17.5,32 L17.675175,31.7331556 C18.890725,29.8808889 19.4985,28.9546667 20.301575,28.2840889 C21.012425,27.6904889 21.8316,27.2451556 22.7122,26.9735111 C23.706725,26.6666667 24.802575,26.6666667 26.9941,26.6666667 L29.4,26.6666667 C31.360175,26.6666667 32.34035,26.6666667 33.089,26.2791111 C33.747525,25.9383111 34.283025,25.3943111 34.6185,24.7253333 C35,23.9648 35,22.9690667 35,20.9777778 L35,5.68888889 C35,3.69758222 35,2.70193778 34.6185,1.94136889 C34.283025,1.27233778 33.747525,0.728408889 33.089,0.387537778 C32.34035,0 31.360175,0 29.4,0 L28.7,0 C24.77965,0 22.819475,0 21.322,0.775057778 C20.00495,1.45683556 18.934125,2.54469333 18.263,3.88273778 C17.5,5.40387556 17.5,7.39518222 17.5,11.3777778" id="Shape"/>
                            </g>
                        </g>
                        <rect id="Rectangle" x="0" y="0" width="40" height="40"/>
                    </g>
                </g>
            </g>
        </g>
    </g>
</svg>