<svg height="448pt" viewBox="-27 0 448 448.98375" width="448pt" xmlns="http://www.w3.org/2000/svg"><path d="m333.121094 224.492188 60.71875-105.171876c1.761718-3.042968 1.761718-6.796874 0-9.84375-1.757813-3.046874-5.007813-4.921874-8.523438-4.921874h-121.441406l-57.523438-99.632813c-1.757812-3.046875-5.007812-4.921875-8.523437-4.921875-3.519531 0-6.769531 1.875-8.527344 4.921875l-57.523437 99.632813h-121.441406c-3.515626 0-6.765626 1.875-8.523438 4.921874-1.7617188 3.046876-1.7617188 6.800782 0 9.84375l60.71875 105.171876-60.71875 105.167968c-1.7617188 3.046875-1.7617188 6.800782 0 9.847656 1.757812 3.046876 5.007812 4.921876 8.523438 4.921876h121.441406l57.523437 99.632812c1.757813 3.042969 5.007813 4.921875 8.527344 4.921875 3.515625 0 6.765625-1.878906 8.523437-4.921875l57.523438-99.632812h121.441406c3.515625 0 6.765625-1.875 8.523438-4.921876 1.761718-3.046874 1.761718-6.800781 0-9.847656zm35.140625-100.246094-46.511719 80.554687-46.507812-80.554687zm-57.878907 100.246094-57.878906 100.246093h-109.355468l-57.878907-100.246093 57.878907-100.246094h109.355468zm-112.554687-194.953126 43.308594 75.015626h-86.621094zm-170.4375 94.707032h93.015625l-46.503906 80.554687zm0 200.492187 46.511719-80.554687 46.507812 80.554687zm170.4375 94.707031-43.3125-75.015624h86.621094zm77.414063-94.707031 46.507812-80.554687 46.511719 80.554687zm0 0"/></svg>