<svg xmlns="http://www.w3.org/2000/svg" xmlns:xlink="http://www.w3.org/1999/xlink" width="40px" height="40px" viewBox="0 0 40 40" version="1.1">
    <title>Group 9</title>
    <g id="Final-app" stroke="none" stroke-width="1" fill="none" fill-rule="evenodd">
        <g id="Soldier-profile--fixed-menu" transform="translate(-184, -1172)">
            <g id="Group-17" transform="translate(0, 1119)">
                <g id="Group-15" transform="translate(172, 53)">
                    <g id="Group-9" transform="translate(12, 0)">
                        <g id="hexagon-01" transform="translate(4, 2.5)" stroke="#FFFFFF" stroke-width="2">
                            <path d="M14.5178484,0.510877008 C15.0185491,0.231120011 15.2688994,0.0912415124 15.5339035,0.0363945103 C15.7687173,-0.0121315034 16.0105932,-0.0121315034 16.245407,0.0363945103 C16.5104111,0.0912415124 16.7607614,0.231120011 17.2614621,0.510877008 L30.3262895,7.81039331 C30.8552385,8.10584624 31.1195364,8.25357271 31.3121543,8.4636923 C31.4823502,8.64957552 31.6114095,8.86988682 31.6901515,9.10990682 C31.7793102,9.3811944 31.7793102,9.68540084 31.7793102,10.2937782 L31.7793102,24.7061108 C31.7793102,25.3145947 31.7793102,25.6187479 31.6901515,25.8900532 C31.6114095,26.1301087 31.4823502,26.3504556 31.3121543,26.536179 C31.1195364,26.7464051 30.8552385,26.8941316 30.3262895,27.1895845 L17.2614621,34.489083 C16.7607614,34.7689111 16.5104111,34.9086475 16.245407,34.9635123 C16.0105932,35.0121626 15.7687173,35.0121626 15.5339035,34.9635123 C15.2688994,34.9086475 15.0185491,34.7689111 14.5178484,34.489083 L1.45296802,27.1895845 C0.924160306,26.8941316 0.659756448,26.7464051 0.467209141,26.536179 C0.296889695,26.3504556 0.167989283,26.1301087 0.0891236292,25.8900532 C3.20260957e-07,25.6187479 3.20260957e-07,25.3145947 3.20260957e-07,24.7061108 L3.20260957e-07,10.2937782 C3.20260957e-07,9.68540084 3.20260957e-07,9.3811944 0.0891236292,9.10990682 C0.167989283,8.86988682 0.296889695,8.64957552 0.467209141,8.4636923 C0.659756448,8.25357271 0.924160306,8.10584624 1.45296802,7.81039331 L14.5178484,0.510877008 Z" id="Path" stroke-linecap="round" stroke-linejoin="round"/>
                            <line x1="0" y1="24.7061108" x2="31.7793102" y2="24.7061108" id="Path-2"/>
                            <line x1="0.467209141" y1="8.4636923" x2="17.2614621" y2="34.489083" id="Path-3"/>
                            <line x1="14.3999999" y1="1.5" x2="31.7793098" y2="24.7061108" id="Path-4"/>
                        </g>
                        <rect id="Rectangle" x="0" y="0" width="40" height="40"/>
                    </g>
                </g>
            </g>
        </g>
    </g>
</svg>