<svg xmlns="http://www.w3.org/2000/svg" xmlns:xlink="http://www.w3.org/1999/xlink" width="14px" height="14px" viewBox="0 0 14 14" version="1.1">
    <title>phone</title>
    <g id="Final-app" stroke="none" stroke-width="1" fill="none" fill-rule="evenodd" stroke-linecap="round" stroke-linejoin="round">
        <g id="Cemetery-Expanded" transform="translate(-35, -153)" stroke="#000000" stroke-width="1.28994575">
            <g id="Group-7" transform="translate(24, 144)">
                <g id="phone" transform="translate(12, 10)">
                    <path d="M3.51548183,4.0624691 C3.9643765,4.99745463 4.57634611,5.87371535 5.35128101,6.64871525 C6.12628042,7.42371516 7.00260506,8.03566582 7.93755774,8.48456724 C8.01798585,8.52313664 8.05816766,8.54248584 8.10905602,8.55732022 C8.28990642,8.61001454 8.51190608,8.57215461 8.66502264,8.46250915 C8.70817133,8.43161493 8.74499928,8.39478695 8.81871968,8.32106651 C9.04420219,8.09551935 9.15694345,7.98277801 9.27032968,7.90912206 C9.6978822,7.63113858 10.249076,7.63113858 10.6766285,7.90912206 C10.7900148,7.98277801 10.902756,8.09551935 11.1282385,8.32106651 L11.2538793,8.4467073 C11.5966823,8.78951061 11.7680516,8.96088001 11.8611212,9.14495539 C12.0462929,9.51097774 12.0462929,9.94330333 11.8611212,10.3093902 C11.7680516,10.4934011 11.5966823,10.664835 11.2538793,11.0075738 L11.1522315,11.1092216 C10.8106539,11.4508639 10.6398651,11.6216528 10.4076103,11.7520664 C10.1499437,11.8967984 9.74973802,12.0008971 9.45421145,12 C9.18790215,11.9992202 9.00582631,11.9475578 8.64180362,11.8442331 C6.6853429,11.2889111 4.83917255,10.2412165 3.29901603,8.70102027 C1.75883371,7.16082405 0.711094626,5.3146525 0.155792332,3.35821631 C0.0524612278,2.99416113 0.000792450964,2.81213677 2.86425494e-16,2.54579505 C-0.000878028777,2.25025538 0.103194794,1.85005591 0.247939606,1.59238263 C0.37838537,1.36017289 0.549180636,1.18937751 0.890777619,0.847780308 L0.992444693,0.746113168 C1.33520908,0.403348561 1.50659772,0.231959808 1.69066008,0.138864362 C2.05672088,-0.0462881208 2.4890204,-0.0462881208 2.8550812,0.138864362 C3.03914356,0.231959808 3.2105322,0.403348561 3.55329659,0.746113168 L3.67898245,0.871799113 C3.90446497,1.09728178 4.01721267,1.21002956 4.09092017,1.32339651 C4.36890348,1.75094931 4.36890348,2.30213059 4.09092017,2.72967693 C4.01721267,2.84304389 3.90446497,2.95579167 3.67898245,3.18127433 C3.6052556,3.25500768 3.56838895,3.2918679 3.53753345,3.33495857 C3.42788161,3.48809458 3.3900217,3.71013308 3.44272889,3.8909578 C3.45756326,3.94183974 3.4768673,3.98204738 3.51548183,4.0624691 Z" id="Path"/>
                </g>
            </g>
        </g>
    </g>
</svg>