<?xml version="1.0"?>
<svg xmlns="http://www.w3.org/2000/svg" width="512" height="512" viewBox="0 0 32 32"><g id="Layer_3" data-name="Layer 3"><path d="M16,1A15,15,0,1,0,31,16,15.017,15.017,0,0,0,16,1Zm0,28c-2.065,0-4.227-2.662-5.3-7H21.3C20.227,26.338,18.065,29,16,29Zm-5.706-9a27.358,27.358,0,0,1,0-8H21.706A26.651,26.651,0,0,1,22,16a26.651,26.651,0,0,1-.294,4ZM3,16a12.94,12.94,0,0,1,.636-4h4.65a28.115,28.115,0,0,0,0,8H3.636A12.94,12.94,0,0,1,3,16ZM16,3c2.065,0,4.227,2.662,5.3,7H10.7C11.773,5.662,13.935,3,16,3Zm7.714,9h4.65a12.9,12.9,0,0,1,0,8h-4.65A28.351,28.351,0,0,0,24,16,28.351,28.351,0,0,0,23.714,12Zm3.807-2H23.354a16.766,16.766,0,0,0-2.567-6.075A13.063,13.063,0,0,1,27.521,10ZM11.213,3.925A16.766,16.766,0,0,0,8.646,10H4.479A13.063,13.063,0,0,1,11.213,3.925ZM4.479,22H8.646a16.766,16.766,0,0,0,2.567,6.075A13.063,13.063,0,0,1,4.479,22Zm16.308,6.075A16.766,16.766,0,0,0,23.354,22h4.167A13.063,13.063,0,0,1,20.787,28.075Z"/></g></svg>
