<svg xmlns="http://www.w3.org/2000/svg" xmlns:xlink="http://www.w3.org/1999/xlink" width="14px" height="12px" viewBox="0 0 14 12" version="1.1">
    <title>Group 3</title>
    <g id="Final-app" stroke="none" stroke-width="1" fill="none" fill-rule="evenodd">
        <g id="Cemetery-Expanded" transform="translate(-207, -154)">
            <g id="Group-5" transform="translate(196, 144)">
                <g id="Group-3" transform="translate(12, 10)">
                    <g id="laptop-02" transform="translate(0, 1)" stroke="#000000" stroke-linecap="round" stroke-linejoin="round" stroke-width="1.2">
                        <path d="M11.4,7.5 L11.4,2 C11.4,1.2999375 11.4,0.9499 11.2692,0.6825125 C11.15418,0.44730625 10.97058,0.25608125 10.7448,0.13624375 C10.48812,0 10.15206,0 9.48,0 L2.52,0 C1.847934,0 1.511904,0 1.255212,0.13624375 C1.029414,0.25608125 0.845838,0.44730625 0.730794,0.6825125 C0.6,0.9499 0.6,1.2999375 0.6,2 L0.6,7.5 M1.600002,10 L10.39998,10 C10.77198,10 10.95798,10 11.11056,9.9574375 C11.52468,9.8418125 11.84814,9.504875 11.95914,9.0735 C12,8.9145625 12,8.7208125 12,8.3333125 C12,8.1395625 12,8.0426875 11.97954,7.96325 C11.9241,7.7475625 11.76234,7.5790625 11.55528,7.5213125 C11.47902,7.5 11.38602,7.5 11.20002,7.5 L0.799998,7.5 C0.614004,7.5 0.52101,7.5 0.444708,7.5213125 C0.237654,7.5790625 0.075924,7.7475625 0.020442,7.96325 C0,8.0426875 0,8.1395625 0,8.3333125 C0,8.7208125 0,8.9145625 0.04089,9.0735 C0.151848,9.504875 0.475308,9.8418125 0.889416,9.9574375 C1.042014,10 1.228014,10 1.600002,10 Z" id="Shape"/>
                    </g>
                    <rect id="Rectangle" x="0" y="0" width="12" height="12"/>
                </g>
            </g>
        </g>
    </g>
</svg>